<svg width="149" height="22" viewBox="0 0 149 22" fill="none" xmlns="http://www.w3.org/2000/svg">
<g opacity="0.5">
<path d="M26.7505 16V7.38086H28.5377C29.8267 7.38086 30.7623 7.48438 31.3443 7.69141C32.1802 7.98438 32.8326 8.49219 33.3013 9.21484C33.774 9.9375 34.0103 10.7988 34.0103 11.7988C34.0103 12.6621 33.8228 13.4219 33.4478 14.0781C33.0767 14.7344 32.5923 15.2188 31.9947 15.5312C31.4009 15.8438 30.567 16 29.4927 16H26.7505ZM27.5767 15.1855H28.5728C29.7642 15.1855 30.5904 15.1113 31.0513 14.9629C31.6998 14.752 32.2095 14.373 32.5806 13.8262C32.9517 13.2754 33.1373 12.6035 33.1373 11.8105C33.1373 10.9785 32.9361 10.2676 32.5338 9.67773C32.1314 9.08789 31.5709 8.68359 30.8521 8.46484C30.313 8.30078 29.4244 8.21875 28.1861 8.21875H27.5767V15.1855ZM41.1527 13.8848L41.8441 14.248C41.6175 14.6934 41.3558 15.0527 41.0589 15.3262C40.762 15.5996 40.428 15.8086 40.057 15.9531C39.6859 16.0938 39.2659 16.1641 38.7972 16.1641C37.7581 16.1641 36.9456 15.8242 36.3597 15.1445C35.7738 14.4609 35.4808 13.6895 35.4808 12.8301C35.4808 12.0215 35.7288 11.3008 36.2249 10.668C36.8538 9.86328 37.6956 9.46094 38.7503 9.46094C39.8363 9.46094 40.7034 9.87305 41.3519 10.6973C41.8128 11.2793 42.0472 12.0059 42.055 12.877H36.3245C36.3402 13.6191 36.5765 14.2285 37.0335 14.7051C37.4905 15.1777 38.055 15.4141 38.7269 15.4141C39.0511 15.4141 39.3655 15.3574 39.6702 15.2441C39.9788 15.1309 40.2405 14.9805 40.4554 14.793C40.6702 14.6055 40.9027 14.3027 41.1527 13.8848ZM41.1527 12.168C41.0433 11.7305 40.8831 11.3809 40.6722 11.1191C40.4652 10.8574 40.1898 10.6465 39.846 10.4863C39.5023 10.3262 39.1409 10.2461 38.762 10.2461C38.137 10.2461 37.5999 10.4473 37.1507 10.8496C36.8226 11.1426 36.5745 11.582 36.4066 12.168H41.1527ZM47.0352 10.3223L46.5079 10.8672C46.0704 10.4414 45.6427 10.2285 45.2247 10.2285C44.9591 10.2285 44.7305 10.3164 44.5391 10.4922C44.3516 10.668 44.2579 10.873 44.2579 11.1074C44.2579 11.3145 44.336 11.5117 44.4923 11.6992C44.6485 11.8906 44.9766 12.1152 45.4766 12.373C46.086 12.6895 46.5001 12.9941 46.7188 13.2871C46.9337 13.584 47.0411 13.918 47.0411 14.2891C47.0411 14.8125 46.8575 15.2559 46.4903 15.6191C46.1231 15.9824 45.6641 16.1641 45.1134 16.1641C44.7462 16.1641 44.3946 16.084 44.0587 15.9238C43.7266 15.7637 43.4513 15.543 43.2325 15.2617L43.7481 14.6758C44.1661 15.1484 44.6095 15.3848 45.0782 15.3848C45.4063 15.3848 45.6856 15.2793 45.9161 15.0684C46.1466 14.8574 46.2618 14.6094 46.2618 14.3242C46.2618 14.0898 46.1856 13.8809 46.0333 13.6973C45.8809 13.5176 45.5372 13.291 45.002 13.0176C44.4278 12.7207 44.0372 12.4277 43.8302 12.1387C43.6231 11.8496 43.5196 11.5195 43.5196 11.1484C43.5196 10.6641 43.6837 10.2617 44.0118 9.94141C44.3438 9.62109 44.7618 9.46094 45.2657 9.46094C45.8516 9.46094 46.4415 9.74805 47.0352 10.3223ZM49.0213 7C49.2088 7 49.369 7.06641 49.5018 7.19922C49.6346 7.33203 49.701 7.49219 49.701 7.67969C49.701 7.86328 49.6346 8.02148 49.5018 8.1543C49.369 8.28711 49.2088 8.35352 49.0213 8.35352C48.8377 8.35352 48.6795 8.28711 48.5467 8.1543C48.4139 8.02148 48.3475 7.86328 48.3475 7.67969C48.3475 7.49219 48.4139 7.33203 48.5467 7.19922C48.6795 7.06641 48.8377 7 49.0213 7ZM48.6112 9.625H49.4373V16H48.6112V9.625ZM56.8668 9.625H57.693V14.7051C57.693 15.5996 57.6148 16.2539 57.4586 16.668C57.2438 17.2539 56.8707 17.7051 56.3395 18.0215C55.8082 18.3379 55.1695 18.4961 54.4234 18.4961C53.8766 18.4961 53.3844 18.418 52.9469 18.2617C52.5133 18.1094 52.1598 17.9023 51.8863 17.6406C51.6129 17.3828 51.3609 17.0039 51.1305 16.5039H52.0211C52.2633 16.9258 52.5758 17.2383 52.9586 17.4414C53.3414 17.6445 53.816 17.7461 54.3824 17.7461C54.941 17.7461 55.4117 17.6406 55.7945 17.4297C56.1813 17.2227 56.4566 16.9609 56.6207 16.6445C56.7848 16.3281 56.8668 15.8184 56.8668 15.1152V14.7871C56.5582 15.1777 56.1813 15.4785 55.7359 15.6895C55.2906 15.8965 54.818 16 54.318 16C53.732 16 53.1813 15.8555 52.6656 15.5664C52.15 15.2734 51.7516 14.8809 51.4703 14.3887C51.1891 13.8965 51.0484 13.3555 51.0484 12.7656C51.0484 12.1758 51.1949 11.627 51.4879 11.1191C51.7809 10.6074 52.1852 10.2031 52.7008 9.90625C53.2203 9.60938 53.7672 9.46094 54.3414 9.46094C54.818 9.46094 55.2613 9.56055 55.6715 9.75977C56.0855 9.95508 56.484 10.2793 56.8668 10.7324V9.625ZM54.4469 10.252C53.982 10.252 53.5504 10.3652 53.152 10.5918C52.7535 10.8145 52.441 11.125 52.2145 11.5234C51.9879 11.918 51.8746 12.3457 51.8746 12.8066C51.8746 13.5059 52.109 14.084 52.5777 14.541C53.0465 14.998 53.6539 15.2266 54.4 15.2266C55.1539 15.2266 55.7594 15 56.2164 14.5469C56.6773 14.0938 56.9078 13.498 56.9078 12.7598C56.9078 12.2793 56.8023 11.8516 56.5914 11.4766C56.3805 11.0977 56.0816 10.7988 55.6949 10.5801C55.3082 10.3613 54.8922 10.252 54.4469 10.252ZM59.6908 9.625H60.5111V10.7676C60.8392 10.3301 61.2025 10.0039 61.6009 9.78906C61.9994 9.57031 62.433 9.46094 62.9017 9.46094C63.3783 9.46094 63.8002 9.58203 64.1673 9.82422C64.5384 10.0664 64.8119 10.3926 64.9877 10.8027C65.1634 11.2129 65.2513 11.8516 65.2513 12.7188V16H64.4369V12.959C64.4369 12.2246 64.4056 11.7344 64.3431 11.4883C64.2455 11.0664 64.0619 10.75 63.7923 10.5391C63.5228 10.3242 63.1713 10.2168 62.7377 10.2168C62.2416 10.2168 61.7963 10.3809 61.4017 10.709C61.0111 11.0371 60.7533 11.4434 60.6283 11.9277C60.5502 12.2441 60.5111 12.8223 60.5111 13.6621V16H59.6908V9.625ZM70.8759 16V7.16406H71.6903V10.7207C72.0341 10.2988 72.4188 9.98438 72.8446 9.77734C73.2704 9.56641 73.7372 9.46094 74.245 9.46094C75.1473 9.46094 75.9169 9.78906 76.5536 10.4453C77.1942 11.0977 77.5145 11.8906 77.5145 12.8242C77.5145 13.7461 77.1923 14.5332 76.5477 15.1855C75.9032 15.8379 75.1278 16.1641 74.2216 16.1641C73.702 16.1641 73.2313 16.0527 72.8095 15.8301C72.3876 15.6074 72.0145 15.2734 71.6903 14.8281V16H70.8759ZM74.1571 15.373C74.6141 15.373 75.036 15.2617 75.4227 15.0391C75.8095 14.8125 76.1161 14.4961 76.3427 14.0898C76.5731 13.6836 76.6884 13.2539 76.6884 12.8008C76.6884 12.3477 76.5731 11.916 76.3427 11.5059C76.1122 11.0957 75.8016 10.7773 75.411 10.5508C75.0243 10.3203 74.6102 10.2051 74.1688 10.2051C73.7196 10.2051 73.2919 10.3203 72.8856 10.5508C72.4833 10.7773 72.1727 11.084 71.954 11.4707C71.7391 11.8574 71.6317 12.293 71.6317 12.7773C71.6317 13.5156 71.8739 14.1328 72.3583 14.6289C72.8466 15.125 73.4462 15.373 74.1571 15.373ZM78.569 9.625H79.4362L81.6276 14.5352L83.7545 9.625H84.6276L80.8248 18.332H79.9577L81.1881 15.5195L78.569 9.625ZM93.7384 7.16406C95.0431 7.16406 96.1349 7.59961 97.0138 8.4707C97.8927 9.3418 98.3322 10.4141 98.3322 11.6875C98.3322 12.9492 97.8927 14.0195 97.0138 14.8984C96.1388 15.7773 95.0705 16.2168 93.8088 16.2168C92.5314 16.2168 91.4533 15.7793 90.5744 14.9043C89.6955 14.0293 89.256 12.9707 89.256 11.7285C89.256 10.9004 89.4552 10.1328 89.8537 9.42578C90.256 8.71875 90.8029 8.16602 91.4943 7.76758C92.1857 7.36523 92.9338 7.16406 93.7384 7.16406ZM93.7795 8.00781C93.1427 8.00781 92.5392 8.17383 91.9689 8.50586C91.3986 8.83789 90.9533 9.28516 90.633 9.84766C90.3127 10.4102 90.1525 11.0371 90.1525 11.7285C90.1525 12.752 90.506 13.6172 91.2131 14.3242C91.924 15.0273 92.7795 15.3789 93.7795 15.3789C94.4474 15.3789 95.0646 15.2168 95.631 14.8926C96.2013 14.5684 96.6447 14.125 96.9611 13.5625C97.2814 13 97.4416 12.375 97.4416 11.6875C97.4416 11.0039 97.2814 10.3867 96.9611 9.83594C96.6447 9.28125 96.1974 8.83789 95.6193 8.50586C95.0412 8.17383 94.4279 8.00781 93.7795 8.00781ZM100.043 7.16406H100.863V16H100.043V7.16406ZM108.175 13.8848L108.867 14.248C108.64 14.6934 108.379 15.0527 108.082 15.3262C107.785 15.5996 107.451 15.8086 107.08 15.9531C106.709 16.0938 106.289 16.1641 105.82 16.1641C104.781 16.1641 103.968 15.8242 103.382 15.1445C102.797 14.4609 102.504 13.6895 102.504 12.8301C102.504 12.0215 102.752 11.3008 103.248 10.668C103.877 9.86328 104.718 9.46094 105.773 9.46094C106.859 9.46094 107.726 9.87305 108.375 10.6973C108.836 11.2793 109.07 12.0059 109.078 12.877H103.347C103.363 13.6191 103.599 14.2285 104.056 14.7051C104.513 15.1777 105.078 15.4141 105.75 15.4141C106.074 15.4141 106.388 15.3574 106.693 15.2441C107.002 15.1309 107.263 14.9805 107.478 14.793C107.693 14.6055 107.925 14.3027 108.175 13.8848ZM108.175 12.168C108.066 11.7305 107.906 11.3809 107.695 11.1191C107.488 10.8574 107.213 10.6465 106.869 10.4863C106.525 10.3262 106.164 10.2461 105.785 10.2461C105.16 10.2461 104.623 10.4473 104.174 10.8496C103.845 11.1426 103.597 11.582 103.429 12.168H108.175ZM116.343 9.625H117.169V14.7051C117.169 15.5996 117.091 16.2539 116.935 16.668C116.72 17.2539 116.347 17.7051 115.816 18.0215C115.285 18.3379 114.646 18.4961 113.9 18.4961C113.353 18.4961 112.861 18.418 112.423 18.2617C111.99 18.1094 111.636 17.9023 111.363 17.6406C111.089 17.3828 110.837 17.0039 110.607 16.5039H111.498C111.74 16.9258 112.052 17.2383 112.435 17.4414C112.818 17.6445 113.292 17.7461 113.859 17.7461C114.417 17.7461 114.888 17.6406 115.271 17.4297C115.658 17.2227 115.933 16.9609 116.097 16.6445C116.261 16.3281 116.343 15.8184 116.343 15.1152V14.7871C116.035 15.1777 115.658 15.4785 115.212 15.6895C114.767 15.8965 114.294 16 113.794 16C113.208 16 112.658 15.8555 112.142 15.5664C111.626 15.2734 111.228 14.8809 110.947 14.3887C110.665 13.8965 110.525 13.3555 110.525 12.7656C110.525 12.1758 110.671 11.627 110.964 11.1191C111.257 10.6074 111.662 10.2031 112.177 9.90625C112.697 9.60938 113.244 9.46094 113.818 9.46094C114.294 9.46094 114.738 9.56055 115.148 9.75977C115.562 9.95508 115.96 10.2793 116.343 10.7324V9.625ZM113.923 10.252C113.458 10.252 113.027 10.3652 112.628 10.5918C112.23 10.8145 111.917 11.125 111.691 11.5234C111.464 11.918 111.351 12.3457 111.351 12.8066C111.351 13.5059 111.585 14.084 112.054 14.541C112.523 14.998 113.13 15.2266 113.876 15.2266C114.63 15.2266 115.236 15 115.693 14.5469C116.154 14.0938 116.384 13.498 116.384 12.7598C116.384 12.2793 116.279 11.8516 116.068 11.4766C115.857 11.0977 115.558 10.7988 115.171 10.5801C114.785 10.3613 114.369 10.252 113.923 10.252ZM122.87 7.38086H123.749V10.6152L127.188 7.38086H128.354L124.212 11.248L128.677 16H127.534L123.749 11.9805V16H122.87V7.38086ZM129.96 9.625H130.786V12.6016C130.786 13.3281 130.825 13.8281 130.903 14.1016C131.02 14.4922 131.243 14.8008 131.571 15.0273C131.903 15.2539 132.298 15.3672 132.755 15.3672C133.212 15.3672 133.598 15.2578 133.915 15.0391C134.235 14.8164 134.456 14.5254 134.577 14.166C134.659 13.9199 134.7 13.3984 134.7 12.6016V9.625H135.538V12.7539C135.538 13.6328 135.434 14.2949 135.227 14.7402C135.024 15.1855 134.716 15.5352 134.301 15.7891C133.891 16.0391 133.376 16.1641 132.755 16.1641C132.134 16.1641 131.614 16.0391 131.196 15.7891C130.782 15.5352 130.471 15.1836 130.264 14.7344C130.061 14.2812 129.96 13.6016 129.96 12.6953V9.625ZM137.483 7.16406H138.303V16H137.483V7.16406ZM140.535 7C140.723 7 140.883 7.06641 141.016 7.19922C141.149 7.33203 141.215 7.49219 141.215 7.67969C141.215 7.86328 141.149 8.02148 141.016 8.1543C140.883 8.28711 140.723 8.35352 140.535 8.35352C140.352 8.35352 140.194 8.28711 140.061 8.1543C139.928 8.02148 139.862 7.86328 139.862 7.67969C139.862 7.49219 139.928 7.33203 140.061 7.19922C140.194 7.06641 140.352 7 140.535 7ZM140.125 9.625H140.951V16H140.125V9.625ZM142.885 7.16406H143.711V12.1914L146.658 9.625H147.865L144.367 12.666L148.07 16H146.91L143.711 13.1348V16H142.885V7.16406Z" fill="white"/>
<path d="M25.7017 17.5H148V18.1973H25.7017V17.5Z" fill="white"/>
<path d="M18.3148 11.1316C17.6938 11.2085 17.0618 11.2481 16.4211 11.2481C12.1493 11.2481 8.2699 9.4886 5.40707 6.62362C7.15259 11.5664 11.0661 15.4078 15.9384 16.8808C16.8092 17.1441 17.7107 17.3317 18.636 17.4364C18.7539 17.4497 18.8722 17.4617 18.9909 17.4724L18.9951 17.4663C20.2561 15.6513 21 13.4167 21 11C21 10.8499 20.9971 10.7005 20.9914 10.5519C20.1277 10.8221 19.2332 11.0177 18.3148 11.1316Z" fill="white"/>
<path d="M2.68421 11C2.68421 15.5221 6.18346 19.188 10.5 19.188C12.0824 19.188 13.555 18.6953 14.7857 17.8484C15.7603 18.3201 16.8157 18.6398 17.9241 18.7787C16.024 20.769 13.3992 22 10.5 22C4.70101 22 0 17.0751 0 11C0 4.92487 4.70101 0 10.5 0C15.6857 0 19.9933 3.93818 20.8465 9.11543C20.0097 9.40738 19.1262 9.592 18.2106 9.6537C17.5984 5.77135 14.3794 2.81203 10.5 2.81203C6.18346 2.81203 2.68421 6.47791 2.68421 11Z" fill="white"/>
</g>
</svg>
