<svg width="70" height="70" viewBox="0 0 70 70" fill="none" xmlns="http://www.w3.org/2000/svg">
<circle cx="35" cy="35" r="35" fill="#2278D4"/>
<path d="M24.3267 35.4L27.8867 38L26.5347 42.187C26.3162 42.8363 26.3134 43.539 26.5268 44.19C26.7402 44.8411 27.1583 45.4058 27.7187 45.8C28.2696 46.2067 28.9371 46.4247 29.6219 46.4212C30.3066 46.4178 30.9719 46.1932 31.5187 45.781L34.9997 43.219L38.4817 45.778C39.0316 46.1824 39.6955 46.4021 40.3781 46.4054C41.0607 46.4087 41.7267 46.1955 42.2805 45.7965C42.8342 45.3974 43.2472 44.833 43.46 44.1844C43.6728 43.5359 43.6744 42.8365 43.4647 42.187L42.1127 38L45.6727 35.4C46.2218 34.9985 46.6301 34.4337 46.8391 33.7863C47.048 33.139 47.0471 32.4421 46.8364 31.7953C46.6257 31.1485 46.2159 30.5849 45.6657 30.1849C45.1155 29.7848 44.453 29.5689 43.7727 29.568H39.3997L38.0727 25.432C37.864 24.7809 37.454 24.213 36.9017 23.81C36.3494 23.4071 35.6834 23.1899 34.9997 23.1899C34.316 23.1899 33.65 23.4071 33.0977 23.81C32.5454 24.213 32.1354 24.7809 31.9267 25.432L30.5997 29.568H26.2307C25.5504 29.5689 24.8879 29.7848 24.3377 30.1849C23.7875 30.5849 23.3777 31.1485 23.167 31.7953C22.9563 32.4421 22.9554 33.139 23.1644 33.7863C23.3733 34.4337 23.7816 34.9985 24.3307 35.4H24.3267Z" fill="#191F30"/>
</svg>
