<svg width="70" height="70" viewBox="0 0 70 70" fill="none" xmlns="http://www.w3.org/2000/svg">
<circle cx="35" cy="35" r="35" fill="#22A75D"/>
<g clip-path="url(#clip0)">
<path d="M45.766 27.5659C45.4006 27.4137 44.9981 27.3737 44.6099 27.4509C44.2217 27.5282 43.8653 27.7193 43.586 27.9999L41 30.5859L36.414 25.9999C36.0389 25.6249 35.5303 25.4143 35 25.4143C34.4697 25.4143 33.9611 25.6249 33.586 25.9999L29 30.5859L26.414 27.9999C26.1343 27.7203 25.778 27.5298 25.3901 27.4527C25.0022 27.3756 24.6001 27.4152 24.2347 27.5665C23.8693 27.7179 23.557 27.9741 23.3372 28.303C23.1174 28.6318 23.0001 29.0184 23 29.4139V39.9999C23.0016 41.3255 23.5289 42.5963 24.4662 43.5337C25.4036 44.471 26.6744 44.9983 28 44.9999H42C43.3256 44.9983 44.5964 44.471 45.5338 43.5337C46.4711 42.5963 46.9984 41.3255 47 39.9999V29.4139C47.0001 29.0183 46.8829 28.6317 46.6633 28.3027C46.4436 27.9738 46.1314 27.7174 45.766 27.5659Z" fill="#191F30"/>
</g>
<defs>
<clipPath id="clip0">
<rect width="24" height="24" fill="white" transform="translate(23 23)"/>
</clipPath>
</defs>
</svg>
