<svg width="82" height="82" viewBox="0 0 82 82" fill="none" xmlns="http://www.w3.org/2000/svg">
<path d="M82 41C82 63.6437 63.6437 82 41 82C0 82 0 82 0 41C0 18.3563 18.3563 0 41 0C63.6437 0 82 18.3563 82 41Z" fill="#22A75D"/>
<path d="M40.4492 50.2705L43.6992 54.4727H39.4844L37.834 52.3525C36.4714 53.0973 34.9521 53.4697 33.2764 53.4697C30.4749 53.4697 28.1475 52.5049 26.2939 50.5752C24.4404 48.637 23.5137 46.3307 23.5137 43.6562C23.5137 41.8704 23.9453 40.2327 24.8086 38.7432C25.6719 37.2451 26.8568 36.056 28.3633 35.1758C29.8783 34.2956 31.5033 33.8555 33.2383 33.8555C35.8874 33.8555 38.1598 34.8118 40.0557 36.7246C41.96 38.6374 42.9121 40.9691 42.9121 43.7197C42.9121 46.2503 42.0911 48.4339 40.4492 50.2705ZM38.2275 47.4014C38.9808 46.2842 39.3574 45.0485 39.3574 43.6943C39.3574 41.9255 38.7607 40.4232 37.5674 39.1875C36.374 37.9518 34.931 37.334 33.2383 37.334C31.4948 37.334 30.0348 37.9349 28.8584 39.1367C27.682 40.3385 27.0938 41.8662 27.0938 43.7197C27.0938 45.7848 27.8343 47.4183 29.3154 48.6201C30.4749 49.5596 31.791 50.0293 33.2637 50.0293C34.11 50.0293 34.9056 49.8643 35.6504 49.5342L32.3115 45.2305H36.5518L38.2275 47.4014ZM48.4092 34.3252H53.7285V53H50.1992V37.6641H46.3525L48.4092 34.3252Z" fill="#0F1320"/>
</svg>
