<svg width="82" height="82" viewBox="0 0 82 82" fill="none" xmlns="http://www.w3.org/2000/svg">
<path d="M82 41C82 63.6437 63.6437 82 41 82C0 82 0 82 0 41C0 18.3563 18.3563 0 41 0C63.6437 0 82 18.3563 82 41Z" fill="#2278D4"/>
<path d="M39.4492 50.2705L42.6992 54.4727H38.4844L36.834 52.3525C35.4714 53.0973 33.9521 53.4697 32.2764 53.4697C29.4749 53.4697 27.1475 52.5049 25.2939 50.5752C23.4404 48.637 22.5137 46.3307 22.5137 43.6562C22.5137 41.8704 22.9453 40.2327 23.8086 38.7432C24.6719 37.2451 25.8568 36.056 27.3633 35.1758C28.8783 34.2956 30.5033 33.8555 32.2383 33.8555C34.8874 33.8555 37.1598 34.8118 39.0557 36.7246C40.96 38.6374 41.9121 40.9691 41.9121 43.7197C41.9121 46.2503 41.0911 48.4339 39.4492 50.2705ZM37.2275 47.4014C37.9808 46.2842 38.3574 45.0485 38.3574 43.6943C38.3574 41.9255 37.7607 40.4232 36.5674 39.1875C35.374 37.9518 33.931 37.334 32.2383 37.334C30.4948 37.334 29.0348 37.9349 27.8584 39.1367C26.682 40.3385 26.0938 41.8662 26.0938 43.7197C26.0938 45.7848 26.8343 47.4183 28.3154 48.6201C29.4749 49.5596 30.791 50.0293 32.2637 50.0293C33.11 50.0293 33.9056 49.8643 34.6504 49.5342L31.3115 45.2305H35.5518L37.2275 47.4014ZM47.6631 40.3428H44.1973C44.2904 38.3285 44.9209 36.7458 46.0889 35.5947C47.2653 34.4352 48.7718 33.8555 50.6084 33.8555C51.7425 33.8555 52.7412 34.0967 53.6045 34.5791C54.4762 35.0531 55.1702 35.7428 55.6865 36.6484C56.2113 37.5456 56.4736 38.4596 56.4736 39.3906C56.4736 40.4993 56.1562 41.6927 55.5215 42.9707C54.8952 44.2487 53.7441 45.7594 52.0684 47.5029L49.9736 49.7119H56.626V53H43.6895V51.2988L49.4658 45.4082C50.8623 43.9948 51.7891 42.8607 52.2461 42.0059C52.7116 41.1426 52.9443 40.3639 52.9443 39.6699C52.9443 38.9505 52.7031 38.3581 52.2207 37.8926C51.7467 37.4186 51.1331 37.1816 50.3799 37.1816C49.6182 37.1816 48.9834 37.4652 48.4756 38.0322C47.9678 38.5993 47.6969 39.3695 47.6631 40.3428Z" fill="#0F1320"/>
</svg>
