<svg width="82" height="82" viewBox="0 0 82 82" fill="none" xmlns="http://www.w3.org/2000/svg">
<path d="M82 41C82 63.6437 63.6437 82 41 82C0 82 0 82 0 41C0 18.3563 18.3563 0 41 0C63.6437 0 82 18.3563 82 41Z" fill="#FFD100"/>
<path d="M38.4492 50.2705L41.6992 54.4727H37.4844L35.834 52.3525C34.4714 53.0973 32.9521 53.4697 31.2764 53.4697C28.4749 53.4697 26.1475 52.5049 24.2939 50.5752C22.4404 48.637 21.5137 46.3307 21.5137 43.6562C21.5137 41.8704 21.9453 40.2327 22.8086 38.7432C23.6719 37.2451 24.8568 36.056 26.3633 35.1758C27.8783 34.2956 29.5033 33.8555 31.2383 33.8555C33.8874 33.8555 36.1598 34.8118 38.0557 36.7246C39.96 38.6374 40.9121 40.9691 40.9121 43.7197C40.9121 46.2503 40.0911 48.4339 38.4492 50.2705ZM36.2275 47.4014C36.9808 46.2842 37.3574 45.0485 37.3574 43.6943C37.3574 41.9255 36.7607 40.4232 35.5674 39.1875C34.374 37.9518 32.931 37.334 31.2383 37.334C29.4948 37.334 28.0348 37.9349 26.8584 39.1367C25.682 40.3385 25.0938 41.8662 25.0938 43.7197C25.0938 45.7848 25.8343 47.4183 27.3154 48.6201C28.4749 49.5596 29.791 50.0293 31.2637 50.0293C32.11 50.0293 32.9056 49.8643 33.6504 49.5342L30.3115 45.2305H34.5518L36.2275 47.4014ZM47.0693 38.9336H43.6543C43.832 37.554 44.3271 36.4453 45.1396 35.6074C46.2738 34.4395 47.6999 33.8555 49.418 33.8555C50.9499 33.8555 52.2321 34.3421 53.2646 35.3154C54.3057 36.2887 54.8262 37.444 54.8262 38.7812C54.8262 39.6107 54.5977 40.3682 54.1406 41.0537C53.6921 41.7393 53.0361 42.2936 52.1729 42.7168C53.307 43.0553 54.1914 43.6478 54.8262 44.4941C55.4694 45.332 55.791 46.3223 55.791 47.4648C55.791 49.1406 55.1732 50.5625 53.9375 51.7305C52.7018 52.89 51.1276 53.4697 49.2148 53.4697C47.4036 53.4697 45.9268 52.9238 44.7842 51.832C43.6416 50.7318 43.0153 49.238 42.9053 47.3506H46.4219C46.5742 48.3154 46.9085 49.0348 47.4248 49.5088C47.9495 49.9743 48.6097 50.207 49.4053 50.207C50.2347 50.207 50.9202 49.9404 51.4619 49.4072C52.012 48.874 52.2871 48.2223 52.2871 47.4521C52.2871 46.6058 51.9189 45.8906 51.1826 45.3066C50.4463 44.7227 49.3841 44.4222 47.9961 44.4053V41.3584C48.8509 41.2907 49.4857 41.1595 49.9004 40.9648C50.3236 40.7617 50.6494 40.4867 50.8779 40.1396C51.1149 39.7926 51.2334 39.4245 51.2334 39.0352C51.2334 38.5273 51.0557 38.1084 50.7002 37.7783C50.3447 37.4398 49.8792 37.2705 49.3037 37.2705C48.7959 37.2705 48.3346 37.4271 47.9199 37.7402C47.5052 38.0449 47.2217 38.4427 47.0693 38.9336Z" fill="#0F1320"/>
</svg>
