<svg width="82" height="82" viewBox="0 0 82 82" fill="none" xmlns="http://www.w3.org/2000/svg">
<path d="M82 41C82 63.6437 63.6437 82 41 82C0 82 0 82 0 41C0 18.3563 18.3563 0 41 0C63.6437 0 82 18.3563 82 41Z" fill="#E20613"/>
<path d="M37.4492 50.2705L40.6992 54.4727H36.4844L34.834 52.3525C33.4714 53.0973 31.9521 53.4697 30.2764 53.4697C27.4749 53.4697 25.1475 52.5049 23.2939 50.5752C21.4404 48.637 20.5137 46.3307 20.5137 43.6562C20.5137 41.8704 20.9453 40.2327 21.8086 38.7432C22.6719 37.2451 23.8568 36.056 25.3633 35.1758C26.8783 34.2956 28.5033 33.8555 30.2383 33.8555C32.8874 33.8555 35.1598 34.8118 37.0557 36.7246C38.96 38.6374 39.9121 40.9691 39.9121 43.7197C39.9121 46.2503 39.0911 48.4339 37.4492 50.2705ZM35.2275 47.4014C35.9808 46.2842 36.3574 45.0485 36.3574 43.6943C36.3574 41.9255 35.7607 40.4232 34.5674 39.1875C33.374 37.9518 31.931 37.334 30.2383 37.334C28.4948 37.334 27.0348 37.9349 25.8584 39.1367C24.682 40.3385 24.0938 41.8662 24.0938 43.7197C24.0938 45.7848 24.8343 47.4183 26.3154 48.6201C27.4749 49.5596 28.791 50.0293 30.2637 50.0293C31.11 50.0293 31.9056 49.8643 32.6504 49.5342L29.3115 45.2305H33.5518L35.2275 47.4014ZM49.7383 33.8555H53.293V45.8779H54.9561V49.166H53.293V53H49.8145V49.166H41.6641V45.8779L49.7383 33.8555ZM49.8145 45.8779V39.6191L45.5488 45.8779H49.8145Z" fill="#0F1320"/>
</svg>
