<svg width="20" height="16" viewBox="0 0 20 16" fill="none" xmlns="http://www.w3.org/2000/svg">
<path d="M19.1668 0.500079C18.3688 1.06298 17.4853 1.4935 16.5502 1.77508C16.0483 1.198 15.3813 0.788989 14.6394 0.603351C13.8974 0.417713 13.1164 0.464409 12.4019 0.737123C11.6874 1.00984 11.0739 1.49541 10.6443 2.12818C10.2148 2.76094 9.98991 3.51036 10.0002 4.27508V5.10841C8.53569 5.14639 7.08456 4.82159 5.776 4.16295C4.46745 3.50431 3.34209 2.53228 2.50016 1.33341C2.50016 1.33341 -0.83317 8.83341 6.66683 12.1667C4.9506 13.3317 2.90613 13.9159 0.833496 13.8334C8.3335 18.0001 17.5002 13.8334 17.5002 4.25008C17.4994 4.01796 17.4771 3.78641 17.4335 3.55841C18.284 2.71966 18.8842 1.66067 19.1668 0.500079Z" fill="white"/>
</svg>
